<?xml version="1.0" encoding="utf-8"?>
<!-- Generator: Adobe Illustrator 25.2.0, SVG Export Plug-In . SVG Version: 6.00 Build 0)  -->
<svg version="1.1" id="Layer_1" xmlns="http://www.w3.org/2000/svg" xmlns:xlink="http://www.w3.org/1999/xlink" x="0px" y="0px"
	 viewBox="0 0 490.1 352.1" style="enable-background:new 0 0 490.1 352.1;" xml:space="preserve">
<style type="text/css">
	.st0{fill:#7A38F5;}
	.st1{fill:#2E2E47;}
	.st2{fill:#FFE2BD;}
	.st3{fill:#E73C7D;}
	.st4{fill:#FFFFFF;}
	.st5{fill:#5591F2;}
	.st6{fill:#CC8B70;}
	.st7{fill:#C96B59;}
	.st8{fill:#EAE6E4;}
	.st9{fill:#FFC97D;}
	.st10{fill:#3E3E54;}
	.st11{fill:#4E33E6;}
	.st12{fill:#FFD3B5;}
	.st13{fill:#FFA982;}
	.st14{fill:#F7BF4D;}
	.st15{fill:#3524D3;}
	.st16{fill:#946255;}
</style>
<g>
	<g>
		<path class="st0" d="M822.3-112.7c0,0,13.5,7,39.3,15.6s40.9,35.3,53.1,60.8c12.1,25.6,59.2,16.4,74.6,29.4
			c15.4,12.9,27.6,39.7,27.6,39.7s-54.9,3.8-66.6,17.5c-11.6,13.7-26.6,21.4-45,21.1C886.8,71,846.7,45,826.1,45.2
			c-20.6,0.3-62.8-12.6-81.8-11.3c-19,1.2-23.5-6.8-23.5-6.8s31.1-50.5,38.5-74.2c7.3-23.6,6.3-36.4,19.5-48.6
			C791.9-107.9,808.9-116.2,822.3-112.7z"/>
		<path class="st1" d="M792.2,145.4c0,0,0.7,5.9,1.6,8.6c0.9,2.7,2.7,10.2,2.9,11.2c0.1,1,0.1,9,2.1,9.6c2,0.7,4.2-11.9,5.3-16
			c1.1-4.2,0.5-14.7,0-18.8C803.5,136,789.6,133.3,792.2,145.4z"/>
		<path class="st1" d="M746.8,29.5L721.7,47c0,0-7.6,5.3,4.9,14.7s63.6-4.3,75.9,3.4s-14.3-24.5-28.1-29.2
			C760.6,31.2,746.8,29.5,746.8,29.5z"/>
		<path class="st1" d="M812.9,91.5c0,0-7-1.4-8.6,1.1s4.3,21.5,6.3,24.2c2,2.7,5.1,6.8,11,9.4c5.9,2.5,10.1,3.7,11.4,2.2
			c1.3-1.5-4.6-4.8-5.7-7.6c-1.1-2.8-6.6-13.7-6.6-18S817.3,91.9,812.9,91.5z"/>
		<path class="st2" d="M750.8,24.6c0,0-20.3,27.3-2.7,61.9c7.4,14.6,29.7,73.3,54.7,57.1c9-5.9-7.1-77.9-7.1-77.9
			s10.9-25.7,9.9-30.5C804.5,30.3,750.8,24.6,750.8,24.6z"/>
		<path class="st2" d="M867.5,31.8c0,0,12.1,30,7.3,45.6s-26.9,32.9-34.7,33.3c-31.2,1.7-32.6-8.5-31.1-26.3
			c0.9-11.2,13.9-17.7,13.9-17.7s-2.9-22.4-3.7-27.3S867.5,31.8,867.5,31.8z"/>
		<path class="st1" d="M773.3,39.9c-10.2-4-21.7-4.4-28.4-3.7c-1.1,2.8-2.1,6.1-2.8,9.7c7.2,0.1,24.8,1,34.9,6
			c11,5.5,18.1,9.8,19.9,10.9c0-0.1,0.1-0.2,0.1-0.3C795.3,59.5,786.9,45.2,773.3,39.9z"/>
		<path class="st1" d="M852.8,74.9c9.8-3.3,17.9-8.5,22.7-12c-0.4-3.6-1.1-7.4-1.9-10.9c-7.7,3.1-33.7,13.5-46.6,15.5
			c-2.2,0.3-4.3,0.4-6.1,0.2c-2.1,1.3-5.9,4-8.6,7.8C820.1,76.7,840.1,79.3,852.8,74.9z"/>
		<path class="st3" d="M805.7-115.4c0,0-13.6,3.9-21.1,13.8s-6.4,39.5-9.8,48.9c-2.2,6.1-53.2,99.6-53.2,99.6s17.2-8.9,48.8-1.7
			c24.4,5.5,17.5,28.3,48.1,28.3c28.3,0,46.7-7.4,57.3-15.7c14.3-11.1,15.4-24,15.4-24s-42.4-80.3-44.7-94.9
			c-3.5-22.5-5.7-41.2-11.4-46.7C825.5-117,809.8-116.9,805.7-115.4z"/>
		<g>
			<path class="st4" d="M810.5,56.9c-0.1,0-0.2-0.1-0.2-0.2c0-0.2-2.7-17.3-1.9-30.8c0.8-14.4,1.9-28,2.7-35.9
				c0.8-8.8,2.1-24.8,2.4-31.1c0-0.1,0.1-0.2,0.2-0.2c0.1,0,0.2,0.1,0.2,0.2c-0.3,6.3-1.6,22.3-2.4,31.1c-0.7,7.9-1.8,21.5-2.7,35.9
				c-0.8,13.5,1.9,30.5,1.9,30.7C810.7,56.8,810.6,56.9,810.5,56.9L810.5,56.9z"/>
		</g>
		<path class="st1" d="M773.4-49.3c0,0,46.6,5.1,72.1,0l1.5,8.4c0,0-53.2,4.6-73.7-1.6v-6.8H773.4z"/>
		<circle class="st5" cx="813.3" cy="-54.2" r="17.9"/>
		<g>
			<path class="st1" d="M989,36.5c-0.1,0-0.2-0.1-0.2-0.2c0,0-0.7-3.8-4.2-9.2c-3.3-5-9.8-12.5-22.2-19.8
				C949.2-0.5,938.6-3.4,929.2-6c-7.9-2.1-15.3-4.1-23-8.6c-8.8-5.1-13.9-15.1-16.7-22.5c-3-8.1-3.9-15-3.9-15.1s0.1-0.2,0.2-0.2
				c0.1,0,0.2,0.1,0.2,0.2c0,0.1,0.9,7,3.9,15c2.7,7.4,7.8,17.2,16.5,22.3c7.7,4.5,15.1,6.5,22.9,8.6c9.4,2.5,20.1,5.4,33.3,13.2
				c12.5,7.3,19,14.9,22.4,20c3.6,5.5,4.3,9.2,4.3,9.4C989.2,36.3,989.2,36.4,989,36.5L989,36.5z"/>
		</g>
		<path class="st5" d="M808.3-74.6c0,0,6.7-2.4,10.9,0s6.1,6,8,4.8s1.4-5.1-3.5-7.3c-4.9-2.2-14.7-1.3-18.2,1.2c0,0-0.6-1.4,1-2.4
			s4.6,0.2,4.8-1.4c0.3-1.6-1-2.5-4.8-1.2s-4.6,7-6.2,8.4c-1.6,1.4-5.1,3.7-3.6,4.3C798.2-67.7,805.3-73.9,808.3-74.6z"/>
		<path class="st1" d="M780-89.1c-1.2,5.8-1.8,12.4-2.4,18.6c9.4-5.9,10.9-22.8,10.9-23.2L780-89.1z"/>
		<path class="st5" d="M831.1-40.3c0.1-1.1-1.3-1.6-2-0.8c-0.9,1.1-2.3,2.6-4,4.1c-3.7,3.2-9.8,4.2-13.6,4s-4.4,4.6,1.9,5.1
			c6.3,0.4,13.6-3.2,16.2-7.7C830.6-37.4,831-39.1,831.1-40.3z"/>
		<path class="st4" d="M800.9-56.5c1.2-2,4.2-0.6,3.6,1.6c-0.3,1.2-0.6,2.9-0.2,4.9c0.7,3.5,4.1,5.6,7.2,6.1c3.1,0.5,5.7-1,5.1-1.3
			c-0.6-0.3-2.1,0.7-2.8-0.1s2.8-1.5,4.7-2s2-2,3.5-1.3s-2.7,3.1-2.4,3.3c0.4,0.2,1.3-0.9,1.6-0.2c0.4,0.8-2.6,4.1-7.5,4.4
			c-4.9,0.3-9.2-0.7-11.4-4.1c-2.1-3.5-2.7-9-1.5-11.3C800.9-56.4,800.9-56.5,800.9-56.5z"/>
		<path class="st4" d="M822.3-57.4c0,0-0.5-5-5.1-7s-8.4,3.8-5.9,6.2c2.5,2.3,3-1.8,5.6,0s1.6,4.7,3.6,4.4
			C822.5-54.1,822.3-57.4,822.3-57.4z"/>
		<g>
			<path class="st6" d="M844.2-49.6c-3,1-10.3-0.7-12.4-2.3c-2-1.5-4.4-4.4-5.5-5.4s-5.1-2.7-4.5-4c0.5-1.2,5.9,2.2,5.9,2.2
				s-2.7-3-4-3.7c-1.3-0.6-2.7-1.3-2.6-2.4c0.1-1.2,1.5-0.6,1.5-0.6s-2.2-0.9-2.1-1.9s1.9-1.1,4.5,0c2.5,1.1,5.1,2.5,5.1,2.5
				s-1.5-3.4-2.1-4.3c-0.7-0.9-2.9-2.4-1.6-3.1c1.2-0.7,6.3,5.4,8.3,7.5s11.5,9.3,12.2,10.9C847.6-52.5,845.4-50,844.2-49.6z"/>
			<path class="st6" d="M839.5-60.6c0,0-2.1-3.4-2.7-5c-0.5-1.6-0.4-5-2-3.5s-0.1,6.5,0.5,7.5C835.8-60.6,839.5-60.6,839.5-60.6z"/>
		</g>
		<g>
			<path class="st6" d="M781.6-49c3,1,10.3-0.7,12.4-2.3c2-1.5,4.4-4.4,5.5-5.4s5.1-2.7,4.5-4c-0.5-1.2-5.9,2.2-5.9,2.2s2.7-3,4-3.7
				c1.3-0.6,2.7-1.3,2.6-2.4c-0.1-1.2-1.5-0.6-1.5-0.6s2.2-0.9,2.1-1.9c-0.2-0.9-1.9-1.1-4.5,0c-2.5,1.1-5.1,2.5-5.1,2.5
				s1.5-3.4,2.1-4.3c0.7-0.9,2.9-2.4,1.6-3.1c-1.2-0.7-6.3,5.4-8.3,7.5s-11.5,9.3-12.2,10.9S780.4-49.4,781.6-49z"/>
			<path class="st6" d="M786.3-60c0,0,2.1-3.4,2.7-5c0.5-1.6,0.4-5,2-3.5s0.1,6.5-0.5,7.5C790-59.9,786.3-60,786.3-60z"/>
		</g>
		<path class="st3" d="M831.8-110.5c0,0,46.8,11.2,59.5,21.3s15.8,28.4,4.6,42c-6.8,8.3-39.1,26.2-45.4,24.5
			c-6.3-1.6-11.3-36.1-10-40.2c1.3-4.2,13.9-10.4,13.9-10.4s-8.9-5.5-14.4-11C831.1-93.1,831.8-110.5,831.8-110.5z"/>
		<path class="st3" d="M799.5-112.7c0,0-51,13.4-63.6,23.5c-12.7,10.1-15.8,28.4-4.6,42c6.8,8.3,39.1,26.2,45.4,24.5
			c6.3-1.6,11.3-36.1,10-40.2c-1.3-4.2-15.7-9.2-15.7-9.2s10.7-10.1,16.2-15.6C796.1-96.5,799.5-112.7,799.5-112.7z"/>
		<path class="st6" d="M801.7-136.7c-0.9-2.1-2-1.3-2.2-0.9c-1.1,2.1-0.4,4.7,0,6.4s1.7,2,1.7,2s0.4-2.6,0.4-3.3
			C801.7-135.2,801.8-135.6,801.7-136.7z"/>
		<path class="st0" d="M801.1-117.8c0,0-8.1,5.8-19.6,7.3s-20.7-2.4-19.5,1.5s20.7,9.5,27.6,10.9c7,1.4,26.1,7.5,26.1,7.5
			s16.3-8.4,26.3-9c10-0.5,20.9-6.5,21.8-8.7s-10-1.8-17.3-2.7c-7.3-0.9-23.9-3-25.8-5.8C818.7-119.6,803.3-119.9,801.1-117.8z"/>
		<path class="st6" d="M800.6-133.3c0.3-2.8-0.9-7.8,1.8-12.3s13.4-5.8,17.6-2.5c4.2,3.2,3.5,9.2,3.5,9.2c0,0.5,0.1,0.9,0.2,1.2
			c0.1,0.2,0.2,0.4,0.4,0.5c0,1.5,0,4.7,0.1,5.4c0.1,1.2,0.3,8.3-0.3,10c-1,2.7-6.8,8-13.2,8s-10.1-3.9-11-7.9
			C799.2-123.7,800.4-132,800.6-133.3z"/>
		<path class="st1" d="M821.4-137.9c0,0,0,6.8-1.1,10.1c-1.1,3.3-1.3,2.8-3,2.5s-1-1-2.1-1.7c-3.4-2.1-8.9-1.4-10.4-0.9
			c-2.6,0.8-2.7,4.8-3.7,0.9c-0.2-0.8-0.1-6.7-0.5-6.6s-2,10.9-1.3,15.5c0.3,1.7,2,2.4,2,2.4s0.6,1.6,4.2,2.7s6.2-0.1,6.2-0.1
			s3.5,0.3,6-1.3c2.4-1.6,4.7-3.5,5.6-7.3c0.9-3.8,0.9-10.7,0.6-12.2C823.7-135.6,823.1-140,821.4-137.9z"/>
		<g>
			<path class="st1" d="M817.3-137.5L817.3-137.5c-0.1,0-3.2-0.8-5.1-0.3c-0.1,0-0.2,0-0.3-0.2c0-0.1,0-0.2,0.2-0.3
				c2-0.5,5.1,0.3,5.2,0.3c0.1,0,0.2,0.1,0.2,0.3C817.5-137.6,817.4-137.5,817.3-137.5z"/>
		</g>
		<g>
			<path class="st1" d="M802-136.5c-0.1,0-0.1,0-0.2-0.1c-0.1-0.1-0.1-0.2,0-0.3c1.3-1,3.8-1.1,4-1.1c0.1,0,0.2,0.1,0.2,0.2
				c0,0.1-0.1,0.2-0.2,0.2c0,0-2.5,0.1-3.7,1C802.1-136.5,802-136.5,802-136.5z"/>
		</g>
		<g>
			<path class="st1" d="M816.6-134.6C816.5-134.6,816.5-134.6,816.6-134.6c-2.7-0.1-3.9-0.4-4-0.4s-0.2-0.1-0.2-0.3
				c0-0.1,0.1-0.2,0.3-0.2c0,0,1.2,0.3,3.9,0.4c0.1,0,0.2,0.1,0.2,0.2C816.8-134.7,816.7-134.6,816.6-134.6z"/>
		</g>
		<path class="st1" d="M815.7-134.2c0.1,0.6,0.1,1.7-1.1,1.7c-1.2,0-1.2-1.5-1-2.1C813.7-135.2,815.3-135.5,815.7-134.2z"/>
		<g>
			<path class="st1" d="M802.5-134.4c-0.1,0-0.2,0-0.4,0c-0.1,0-0.2-0.1-0.2-0.2c0-0.1,0.1-0.2,0.2-0.2c1.6,0.1,3.3-0.4,3.4-0.4
				c0.1,0,0.2,0,0.3,0.1c0,0.1,0,0.2-0.1,0.3C805.6-134.8,804.1-134.4,802.5-134.4z"/>
		</g>
		<path class="st1" d="M805.1-134.2c0.3,0.5,0.4,1.6-0.7,1.8c-1.1,0.3-1.2-1.1-1.2-1.6C803.1-134.6,804.5-135.3,805.1-134.2z"/>
		
			<ellipse transform="matrix(0.9994 -3.334784e-02 3.334784e-02 0.9994 4.8189 27.1446)" class="st7" cx="816.2" cy="-130.9" rx="2.8" ry="1.6"/>
		
			<ellipse transform="matrix(0.9994 -3.335473e-02 3.335473e-02 0.9994 4.8128 26.7132)" class="st7" cx="803.1" cy="-130.9" rx="2.5" ry="1.6"/>
		<path class="st6" d="M822.7-136.7c1.1-2.1,2.5-1.3,2.7-0.9c1.3,2.1,0.4,4.7-0.1,6.4s-2.1,2-2.1,2s-0.5-2.6-0.5-3.3
			C822.7-135.2,822.6-135.6,822.7-136.7z"/>
		<path class="st6" d="M804.8-126.6c1-0.6,3.4,0.1,5.5,0s3.8-0.3,4.5,0.5s-0.6,3.2-2.1,3.4c-1.6,0.3-2.3-1.4-3.6-1.2
			c-1.4,0.3-2.7,1.4-3.6,1C804.5-123.3,803.8-126,804.8-126.6z"/>
		<path class="st4" d="M804.9-126.2c5.2,0.3,9.4,0.1,9.4,0.1s-0.2,2.8-4.4,2.9C804.7-123,804.9-126.2,804.9-126.2z"/>
		<path class="st6" d="M806.9-129.4c0,0.1-0.1,1.8,1.8,2.1c1.9,0.3,2.9-1,2.6-2.1C811-130.5,807.3-130.8,806.9-129.4z"/>
		<g>
			<path class="st1" d="M807.4-127.7c-0.1,0-0.1,0-0.2-0.1c-0.7-0.9-0.5-1.4-0.3-2.3v-0.1c0.2-0.8,0.6-3.3,0.4-5
				c-0.2-1.5-1-2.1-1-2.1c-0.1-0.1-0.1-0.2-0.1-0.3c0.1-0.1,0.2-0.1,0.3-0.1c0,0,1.1,0.7,1.2,2.5c0.2,1.8-0.2,4.2-0.4,5.1v0.1
				c-0.2,0.8-0.3,1.2,0.2,1.9c0.1,0.1,0.1,0.2,0,0.3C807.5-127.7,807.4-127.7,807.4-127.7z"/>
		</g>
		<g>
			<path class="st1" d="M810.5-133.7c-0.1,0-0.2-0.1-0.2-0.2c-0.1-1.7,0.9-3.3,0.9-3.4c0.1-0.1,0.2-0.1,0.3-0.1
				c0.1,0.1,0.1,0.2,0.1,0.3c0,0-0.9,1.5-0.8,3.1C810.7-133.8,810.6-133.7,810.5-133.7L810.5-133.7z"/>
		</g>
		<path class="st1" d="M822.7-120.1c0,0-1.8,9.6-3.1,12.8c-1.3,3.1,0.3,3.9,0.3,3.9s6.1-0.1,9.7,3.2s5.9,9.4,5.9,9.4
			s7.8-2.9,14.6-0.7c6.8,2.2,8.8,5.2,11.5,5.4c0,0-11.9,7.3-17.6,8.5c-5.6,1.2-11.4-2.8-11.4-2.8s-18.2,0.8-24.2-6.6
			s-4.9-11.3-4.9-11.3s-14.5-7.8-2.5-21.1C805.7-124.6,822.7-120.1,822.7-120.1z"/>
		<path class="st8" d="M799.1-133.5c0,0,1.9-3.6,5.9-5.5c4-1.8,6-2.2,6-2.2l14.7,9.2c0,0,2.4-9,3.6-12s3.9-16.3,0.1-21.8
			c-3.8-5.6-25.1-8-31.5-2.9s0,28.1,0.1,30C797.9-136.7,799.1-133.5,799.1-133.5z"/>
		<g>
			<path class="st4" d="M854.4-73c-0.1,0-0.2-0.1-0.2-0.1c0-0.1,0-0.2,0.1-0.3c0.1,0,7-2.5,14.9-4.4c10.6-2.6,17.8-3.1,21.5-1.5
				c1.7,0.8,2.5,1.4,2.4,2c-0.2,1.2-4.5,1.5-11.4,1.9c-3.5,0.2-7,0.4-9.8,0.7c-9,1.3-11.6,1.8-11.6,1.8c-0.1,0-0.2-0.1-0.3-0.2
				c0-0.1,0.1-0.2,0.2-0.3c0,0,2.6-0.5,11.7-1.8c2.8-0.4,6.4-0.6,9.8-0.8c4.8-0.2,10.8-0.6,11-1.5c0-0.1-0.1-0.6-2.1-1.5
				C882.1-82.7,854.7-73.1,854.4-73L854.4-73z"/>
		</g>
		<g>
			<path class="st4" d="M856.2-76.4c-0.1,0-0.2-0.1-0.2-0.1c0-0.1,0-0.2,0.1-0.3c0.7-0.3,16.8-6.7,21-5.9c0.1,0,0.2,0.1,0.2,0.3
				c0,0.1-0.1,0.2-0.3,0.2C872.9-83.1,856.4-76.5,856.2-76.4L856.2-76.4z"/>
		</g>
		<g>
			<path class="st4" d="M771-71.9L771-71.9c-0.3,0-28.9-3.8-34.1-1.4c-2.2,1-4,0.6-4.9-0.2c-0.5-0.5-0.7-1.1-0.5-1.8
				c0.2-0.6,1.3-2.1,5.8-2.3c7.7-0.4,25.4,2.4,30.1,3.2c-3.9-2.2-18.2-9.9-27.7-8.1c-0.1,0-0.2-0.1-0.3-0.2c0-0.1,0.1-0.2,0.2-0.3
				c11.2-2.1,28.8,8.7,29,8.8l1,0.6l-1.1-0.2c-0.2,0-22.3-3.8-31.2-3.4c-4.4,0.2-5.2,1.6-5.4,2.1s0,0.9,0.4,1.3
				c0.8,0.7,2.4,1,4.4,0.1c2.2-1,8.7-1.1,19.2-0.2c7.8,0.6,15,1.6,15.1,1.6s0.2,0.1,0.2,0.2C771.2-71.9,771.1-71.9,771-71.9z"/>
		</g>
		<g>
			<path class="st4" d="M775-22.8c-3.2,0-7.7-1.4-13.1-4.1c-0.1-0.1-0.1-0.2-0.1-0.3c0.1-0.1,0.2-0.1,0.3-0.1
				c7.9,4.1,14.2,5.2,16.5,2.9s6.9-23.7,6.9-23.9c0-0.1,0.1-0.2,0.3-0.2c0.1,0,0.2,0.1,0.2,0.3c-0.2,0.9-4.6,21.7-7,24.1
				C778-23.2,776.7-22.8,775-22.8z"/>
		</g>
		<g>
			<path class="st4" d="M852.2-22.1c-0.5,0-1.1-0.1-1.7-0.4c-1.5-0.7-3.7-2.9-5.4-8.7c-2.8-9.6-3.9-17.8-3.9-17.9s0.1-0.2,0.2-0.2
				c0.1,0,0.2,0.1,0.2,0.2c0,0.1,1.1,8.2,3.9,17.8c1.7,5.7,3.7,7.7,5.2,8.5c1.3,0.6,2.3,0.3,2.4,0.2c0.9-0.4,7.5-2.6,7.7-2.7
				c0.1,0,0.2,0,0.3,0.1c0,0.1,0,0.2-0.1,0.3c-0.1,0-6.9,2.4-7.7,2.7C853.1-22.3,852.7-22.1,852.2-22.1z"/>
		</g>
		<path class="st5" d="M803.2-34.7c0,0-3.1-6.1-5.6-5.5s-3.6,2.4-1.3,4.5c2.3,2,5.5,4.9,6.9,3.7C804.5-33.2,803.2-34.7,803.2-34.7z"
			/>
		<g>
			<path class="st4" d="M828.1,62.6c-3.6,0-7.4-0.2-11.7-0.6c-11.2-0.8-12.8-3.2-15.5-7.2c-1.1-1.7-2.4-3.6-4.7-5.8
				c-6.2-5.9-8.5-6.6-18.2-9.7c-2.4-0.8-5.5-1.7-9.1-2.9c-17.8-5.9-38.9-0.1-39.1,0c-0.1,0-0.2,0-0.3-0.1c0-0.1,0-0.2,0.1-0.3
				c0.2-0.1,21.4-6,39.3,0c3.6,1.2,6.7,2.2,9.1,2.9c9.8,3.1,12.2,3.8,18.4,9.8c2.3,2.2,3.6,4.2,4.8,5.9c2.6,3.9,4.2,6.2,15.1,7
				c16.2,1.2,24.8,1.3,43-8.3c18.3-9.7,29.3-23.7,29.4-23.9c0.1-0.1,0.2-0.1,0.3,0s0.1,0.2,0,0.3c-0.1,0.1-11.1,14.2-29.5,24
				C846.2,60.7,838,62.6,828.1,62.6z"/>
		</g>
		<g>
			<path class="st9" d="M837.3-34.4c0,0-4.5-13-3.6-13.6c1-0.6,1.2-1.5,2.7-0.3s3.6,12.6,3.2,13C839.2-34.9,837.3-34.4,837.3-34.4z"
				/>
			<path class="st9" d="M844.4-19.6c0,0-1.4,14.6,0.6,21.3c2,6.8,14.6,15.8,18.9,13.8c4.3-2-0.7-17.6-2.1-20.8
				S849.7-18.8,844.4-19.6z"/>
			<path class="st0" d="M860.8,1.2c-0.5-2.9-1.9-5.6-4-7.8c-3.5-3.7-8.8-9.2-9.9-8.6c-1.5,0.8,1.1,16.4,3.3,19.4s9.5,8.3,11.1,7
				C862.4,10.5,861.6,5.2,860.8,1.2z"/>
			<path class="st9" d="M846.1-15.8c0,0-2.8-0.2-4.3-1.7c-1.6-1.5-2.7-6.6-2.1-7.5c0.5-1,4.2-2.7,5.3-1.6c1.1,1,3.5,6.9,3.3,8.1
				S847.6-16.1,846.1-15.8z"/>
			<path class="st9" d="M841.2-24.9c0,0-2.7-0.5-4.1-2.2c-1.4-1.7-1.8-6.8-1.2-7.7c0.7-0.9,4.5-2.1,5.5-1c1,1.2,2.6,7.3,2.3,8.4
				C843.4-26.2,842.7-25.1,841.2-24.9z"/>
		</g>
		<g>
			<path class="st1" d="M947.5,46.2c-0.1,0-0.2-0.1-0.2-0.1c-0.1-0.2-6.8-15.7-25.5-25.9c-5.1-2.8-8.9-4.7-11.9-6.2
				c-8.1-4-10-5-15.3-12.6c-0.1-0.1,0-0.2,0.1-0.3c0.1-0.1,0.2,0,0.3,0.1c5.1,7.5,7.1,8.5,15.1,12.5c3,1.5,6.8,3.4,11.9,6.2
				c9.8,5.4,16.3,12.2,20,17c4,5.2,5.7,9.1,5.7,9.2C947.8,46,947.7,46.1,947.5,46.2C947.6,46.2,947.5,46.2,947.5,46.2z"/>
		</g>
		<g>
			<path class="st1" d="M902.7,65.4L902.7,65.4c-0.2-0.1-0.2-0.2-0.2-0.3c0.1-0.1,5.2-7.7,0-25.9c-3.7-12.9-5.3-15.8-7.7-20.2
				c-1-1.9-2.2-4.1-3.8-7.5c-0.1-0.1,0-0.2,0.1-0.3s0.2,0,0.3,0.1c1.6,3.4,2.7,5.5,3.8,7.4c2.4,4.4,4,7.4,7.7,20.3
				c1.5,5.3,3.1,13.1,2,20.1c-0.7,4.2-2,6.1-2,6.2C902.9,65.4,902.8,65.4,902.7,65.4z"/>
		</g>
		<g>
			<path class="st1" d="M827.5-140.2L827.5-140.2c-0.2-0.1-8.2-5.8-11-7.6c-3-1.9-6.9-1.3-9.3-0.3c-2.6,1.1-10,3.2-10.1,3.2
				s-0.2,0-0.3-0.2c0-0.1,0-0.2,0.2-0.3c0.1,0,7.5-2,10-3.2c2.5-1.1,6.5-1.6,9.7,0.3c2.9,1.8,10.9,7.5,11,7.6s0.1,0.2,0.1,0.3
				C827.6-140.2,827.6-140.2,827.5-140.2z"/>
		</g>
		<g>
			<path class="st1" d="M829.9-150.6L829.9-150.6c-0.2-0.1-16-4.3-19-4.9c-3-0.6-14.4,4.3-14.5,4.3s-0.2,0-0.3-0.1
				c0-0.1,0-0.2,0.1-0.3c0.5-0.2,11.6-5,14.8-4.4c3.1,0.6,18.8,4.9,19,4.9c0.1,0,0.2,0.2,0.2,0.3C830.1-150.6,830-150.6,829.9-150.6
				z"/>
		</g>
		<g>
			<path class="st1" d="M796.3-159.8c-0.1,0-0.2,0-0.2-0.1s0-0.2,0.1-0.3c0.1,0,7.6-3.4,14.4-3.4c0.1,0,0.2,0,0.4,0
				c1.6,0,2.9,0.1,4,0.1c3.5,0.1,4.7,0.1,7.4-0.5c3.6-0.8,7.4-1.1,7.5-1.1s0.2,0.1,0.2,0.2c0,0.1-0.1,0.2-0.2,0.2c0,0-3.8,0.2-7.4,1
				c-2.8,0.6-4,0.6-7.5,0.5c-1.1,0-2.4-0.1-4-0.1C804.1-163.3,796.4-159.8,796.3-159.8L796.3-159.8z"/>
		</g>
		<g>
			<path class="st1" d="M830.7-155.5c-0.1,0-0.1,0-0.2-0.1c-1-1.2-11.7-5.5-17.2-7.6c-0.1,0-0.2-0.2-0.1-0.3c0-0.1,0.2-0.2,0.3-0.1
				c0.7,0.2,16,6,17.4,7.7c0.1,0.1,0.1,0.2,0,0.3C830.8-155.5,830.8-155.5,830.7-155.5z"/>
		</g>
		<path class="st9" d="M825.6-132c0,0,0.5-1.7,1.1-3.9l-12.7-7.3c0,0,1.1-6,0.6-8.9s-3.7-6.7-3.7-6.7s-3.5,2.8-4.7,7.3
			c-0.9,3.2,0.9,8.6,0.9,8.6l-9.2,4.9c0.2,1.9,1.2,4.5,1.2,4.5s1.9-3.6,5.9-5.5c4-1.8,6-2.2,6-2.2L825.6-132z"/>
		<path class="st3" d="M810.5-142.5c0,0-2.9-3.8-2.4-7.1c0.5-3.4,2.5-6.4,2.5-6.4s2.3,2.9,2.4,6.5
			C813.1-146.1,810.5-142.5,810.5-142.5z"/>
		<g>
			<path class="st1" d="M798.8,135.1L798.8,135.1c-0.2-0.1-9.6-5.5-18.6-14.1c-9.3-8.9-28.2-35.2-28.3-35.4c-0.1-0.1,0-0.2,0.1-0.3
				c0.1-0.1,0.2,0,0.3,0.1c0.2,0.3,19.1,26.5,28.2,35.3c9,8.6,18.4,14,18.5,14c0.1,0.1,0.1,0.2,0.1,0.3
				C799,135,798.9,135.1,798.8,135.1z"/>
		</g>
		<g>
			<path class="st1" d="M796.1,125.3c-0.1,0-0.2,0-0.2-0.1c-0.5-1.1-11.8-26.4-12.2-27.5c0-0.1,0-0.2,0.1-0.3c0.1,0,0.2,0,0.3,0.1
				c0.4,1.1,12.1,27.2,12.2,27.4C796.3,125.1,796.3,125.2,796.1,125.3L796.1,125.3z"/>
		</g>
		<g>
			<path class="st1" d="M819.5,105.1c-0.1,0-0.1,0-0.2,0c-0.1,0-0.2-0.1-0.2-0.2s0.1-0.2,0.2-0.2l0,0c0.1,0,0.1,0,0.2,0
				c11.2,0,29.9-9,30.6-9.8c0.1-0.1,0.2-0.1,0.3,0s0.1,0.2,0,0.3c-0.4,0.5-5.5,3-11.6,5.4C833.3,102.7,825.5,105.1,819.5,105.1z"/>
		</g>
		<g>
			<path class="st1" d="M816.3,99.1L816.3,99.1c-0.1,0-0.2-0.1-0.2-0.2c0.2-3,2.1-6.8,5.6-11.4c2.6-3.4,5.3-6,5.3-6
				c0.1-0.1,0.2-0.1,0.3,0s0.1,0.2,0,0.3c-0.1,0.1-10.4,10.2-10.8,17.1C816.5,99,816.4,99.1,816.3,99.1z"/>
		</g>
	</g>
</g>
<g>
	<ellipse class="st1" cx="255.1" cy="336.5" rx="123.9" ry="11.2"/>
	<g>
		<path class="st1" d="M305.1,264.8l21,11c0,0-2.2,5.7-20.1,7s-42.7-2.4-42.7-2.4S294,261.7,305.1,264.8z"/>
		<path class="st1" d="M194.5,72c0,0-2.4,11.8-4.8,16.2s-6.3,9.1-3.2,12.6c3.2,3.5,29,10.2,34.6,6.8s-7.4-25.8-10.2-29.6
			C208.2,74.2,196.5,69.1,194.5,72z"/>
		<path class="st1" d="M224.4,280.4c0,0-34.8-8.7-49.1-23.1c-14.4-14.4-12.4-20.9-12.4-20.9s26-10.9,36.5,0
			C209.9,247.2,224.4,280.4,224.4,280.4z"/>
		<polygon class="st10" points="276,279 322,325.3 332.7,325.3 305.1,271.2 		"/>
		<path class="st10" d="M163.4,234.5l-1.5,4.2c-1.1,3.3-1.7,6.7-1.6,10.2c0.4,15.1,25.3,66.3,27.4,72.3c2.6,7.4,10.4,5.6,11.7,0.8
			c1.1-3.9-14.1-70.5-14.1-70.5s3.1-5.7,3.2-6.5C189.1,240.9,163.4,234.5,163.4,234.5z"/>
		<path class="st1" d="M180.6,101.5c0,0,34.8-5.5,48.4,7.1c29,26.9,35.8,84.2,49,104.4c2.1,3.2,2,17.1,24.7,30.9
			c12.4,7.6,9.1,20.9,23.4,31.9c0.9,0.7-26.8-4.9-47.4,5.2c-15.4,7.5-37.1,3.7-47.5,1.5c-31.1-6.8-41.4-37.8-70.8-37.9
			c0,0,19.6-81.1,19.6-82.6C179.9,160.3,175.7,101.5,180.6,101.5z"/>
		<path class="st1" d="M225.7,106.1c0,0,69.1,40.2,91.4,47.4c22.3,7.2,22.3,7.2,22.3,7.2s11.4,29,11.4,39.6s-25.7,8.2-31.7,4.5
			s-24.7-21.7-38.6-29.6c-13.9-7.9-34.4-30.2-40.3-35.9C234.2,133.5,225.7,106.1,225.7,106.1z"/>
		<path class="st11" d="M314.6,195.6c-11.6-6.5-32.4,0.4-43.5-5.2c-10.6-5.4-14.4-18.1-14.4-18.1l-22.9,2.5c0,0,9.4,22.9,21.5,32.2
			c8.8,6.8,21.2-1,34.8,3.9c6.5,2.3,11.4,6.7,14.8,10.6l21.6-15.7C323.8,202.5,319.9,198.6,314.6,195.6z"/>
		<path class="st12" d="M333.4,164c0,0,0.1,3.9,3.4,6c3.3,2.2,5.2,4.7,6.2,5.6s1.4-0.7-0.1-2.3c-1.5-1.7-2.1-2-2.1-3.1
			s9.8-1.4,11.3-0.7c1.9,0.8,2.9-0.2,1.9-0.8c-1.7-1-5-1.6-5-1.6s6.1,0.5,6.6-0.2s-0.9-1-0.9-1s1.1-0.4,0.9-1
			c-0.2-0.5-6.2-2.6-6.2-2.6s3.3-1,3.6-2.1c0.3-1.2-5.7,0.3-6.7,0.4C345.4,160.7,335.9,159.4,333.4,164z"/>
		<path class="st1" d="M235.7,178.9l23.5-1c-1.1-2.1-1.8-3.9-2.2-4.9l0,0l-22.8,2.6C234.5,176.3,235,177.5,235.7,178.9z"/>
		<path class="st1" d="M182.5,315c0,0-3.3-7.9-1-9.1s10.2-0.2,12.7-1.1s5.1-1,5.5-0.2c0.4,0.7,0.9,19,0.7,20.9s0.6,6.7-2.1,7.8
			c-2.7,1.1-26.6,0.7-29,0.6s-12.7,1-13.1,0.1c-0.4-0.8,2.7-3.5,6.2-4.1s9.4-3.1,10.2-3.5s8.6-3.5,10.5-6.1
			C185,317.6,182.5,315,182.5,315z"/>
		<path class="st1" d="M312.4,317.2c-1-1-0.8-2.7,0.5-3.4c1.3-0.7,2.8-1.3,3.9-1.3c2.4-0.1,7.4-3.3,8.1-2.1
			c0.7,1.2,8.5,10.9,8.9,11.3c5.1,4.8,14.3,7.5,14.3,11.1c0,0.8-20.6,0.6-22.9-0.2c-2.3-0.7-2.9-5.5-2.9-5.5
			S315.6,320.3,312.4,317.2z"/>
		<path class="st11" d="M179.9,161.9c0,0,44.2,2.5,58.8,0c14.6-2.4,19.1-3.4,19.1-3.4l5.4,15.8c0,0-35.9,5.6-56.4,4.3
			c-20.5-1.2-29.4-5.3-29.4-5.3L179.9,161.9z"/>
		<path class="st8" d="M305.3,309.7c0.1-0.2-7.3-3.5,3.6-7.5c2.1-0.8,9.3-2.9,11.8-1.6s3.7,8.1,4.9,9.6s0.2,3.1-3.5,4.2
			c-3.6,1.1-8.5,3.1-10.6,2.4C309.5,316,304.3,311.8,305.3,309.7z"/>
		<g>
			<path class="st4" d="M230,258.8c-0.1,0-0.2-0.1-0.2-0.1c-0.1-0.3-9.2-34.5-10.2-43.5c-0.5-4.3-1.3-17.6-2.1-31.8
				c-1-16.1-2-32.8-2.6-39.2c-1.3-12.4-4.7-25.5-5.3-27.4c0-0.1,0-0.2,0.1-0.2s0.2,0,0.2,0.1c0.6,1.9,4,15.1,5.4,27.5
				c0.7,6.4,1.7,23.1,2.6,39.2c0.8,14.1,1.6,27.5,2.1,31.7c1,9,10.1,43.1,10.2,43.5C230.2,258.7,230.1,258.8,230,258.8L230,258.8z"
				/>
		</g>
		<path class="st1" d="M186.5,100.8l-53-5.1L70.3,82c0,0,2.5,35.3,9.1,47.8s12.7,17.3,17.3,17.3s30.8-14.3,41-15.3s47.1-5,48.9-6.2
			C188.4,124.6,186.5,100.8,186.5,100.8z"/>
		<path class="st12" d="M211.2,79.2c0.3,0.3,0.9,0.3,1.7,0.6c1.4,0.5,1.1,2.5,0.5,3.8s-2.6,1.7-2.6,1.7s-0.2-1.9-0.2-2.4
			C210.6,79.7,211.2,80,211.2,79.2z"/>
		<path class="st12" d="M209.3,81.3c-0.3,1.7-0.4,4.6-1.5,5.8c-1.1,1.2-1.2,1.6-1.8,1s-12.2-1.4-12.9-2.5c0.3-1.9,0.7-3.7,0.9-4.7
			c0.4-2-0.1-5.8,2.1-8.8c2.2-3.1,10.1-3.4,12.9-0.7c2.8,2.6,1.9,6.9,1.9,6.9c0,0.4,0,0.7,0.1,0.9C210.4,79.2,209.5,80.1,209.3,81.3
			z"/>
		<g>
			<path class="st8" d="M226.3,165l-3.7-0.6c0-0.2,2.8-17.5,1.2-33.5c-1.6-16.1-2.7-21.4-2.7-21.4l3.6-0.7c0,0.2,1.1,5.5,2.7,21.8
				C229.2,147,226.5,164.2,226.3,165z"/>
		</g>
		<path class="st4" d="M193.4,84.5c1.3-0.3,2.2,1,3.4,0.9c2.2-0.2,5.2-0.5,6.9,0.2c1.7,0.6,1.7,1.7,2.3,2.3c0.6,0.6,0.7,0.2,1.8-1
			s1.3-4,1.5-5.8c0.2-1.2,1.1-2,1.7-2.4c0.1,0.2,0.1,0.3,0.3,0.4c-0.1,1.1-0.3,3.4-0.3,3.9c0,0.8-0.4,7.5,0.7,11.1
			c0.2,0.8,4,4.9,7.4,10.4c5,8,10.1,18.1,10.1,18.1s-15.8,10.6-35-17.7c-2.3-3.4-4.1-12.7-4-13.6C190.4,88.3,191.8,84.9,193.4,84.5z
			"/>
		<path class="st12" d="M198.5,82.8c0,0-1.3,1.4-0.9,2.2c0.4,0.8,2.3,0.9,3.4,0.4C202.1,85,200.6,81.9,198.5,82.8z"/>
		<g>
			<path class="st8" d="M218.5,167.9c-0.4-0.4-11-10.9-16.2-20.5c-5.1-9.6-10.1-41.9-10.4-43.2l3.7-0.6c0,0.1,1.3,8.4,3.2,17.7
				c2.5,12.2,4.8,20.6,6.8,24.3c4.8,9,15.4,19.5,15.5,19.6L218.5,167.9z"/>
		</g>
		<g>
			<path class="st1" d="M197.5,84.7c-0.1,0-0.2-0.1-0.2-0.2c0-0.4,0.2-0.8,0.5-1.2c0.4-0.4,1.3-1.6,1.1-2.9
				c-0.3-1.7-0.9-2.6-1.8-2.6c-1.4-0.1-2.3,0.5-2.3,0.5c-0.1,0.1-0.2,0-0.3-0.1s0-0.2,0.1-0.3c0,0,1-0.6,2.6-0.6
				c1.1,0.1,1.8,1,2.1,3c0.3,1.5-0.8,2.8-1.2,3.3c-0.2,0.2-0.4,0.5-0.4,0.9C197.7,84.6,197.6,84.7,197.5,84.7L197.5,84.7z"/>
		</g>
		<g>
			<g>
				<path class="st1" d="M205.3,81.1c-0.1,0-0.1,0-0.2-0.1c0,0-0.7-0.9-2-0.8c-0.2,0-0.7,0.2-0.8,0.2s-0.2,0-0.2-0.1s0-0.2,0.1-0.2
					s0.7-0.2,0.9-0.2c1.6-0.2,2.3,0.9,2.3,1c0.1,0.1,0,0.2-0.1,0.3C205.3,81.1,205.3,81.1,205.3,81.1z"/>
			</g>
			<path class="st1" d="M202.9,80.4c0.6-0.4,1.4,0.3,1.2,1c-0.1,0.4-0.3,0.8-0.8,0.8c-0.9,0-0.8-1.1-0.8-1.5
				C202.6,80.6,202.7,80.5,202.9,80.4z"/>
			<g>
				<path class="st1" d="M197.4,80.1h-0.1c0,0-1-0.6-2.2-0.2c-0.1,0-0.2,0-0.2-0.1s0-0.2,0.1-0.2c1.4-0.5,2.5,0.2,2.6,0.2
					c0.1,0.1,0.1,0.2,0.1,0.3C197.6,80.1,197.5,80.1,197.4,80.1z"/>
			</g>
			<path class="st1" d="M196.6,80.2c0,0,0.2,1.2-0.5,1.4c-0.7,0.1-0.7-0.9-0.7-1.3C195.5,79.8,196.1,79.5,196.6,80.2z"/>
		</g>
		<path class="st13" d="M205.4,83.9c-0.1,0.7-0.9,1.2-2,1.1c-1-0.1-1.8-0.7-1.7-1.4c0.1-0.7,0.9-1.2,2-1.1
			C204.7,82.6,205.4,83.2,205.4,83.9z"/>
		<path class="st13" d="M197,83c-0.1,0.7-0.9,1.2-2,1.1c-1-0.1-1.8-0.7-1.7-1.4c0.1-0.7,0.9-1.2,2-1.1C196.3,81.7,197.1,82.3,197,83
			z"/>
		<path class="st1" d="M201.4,73.1c0,0,9.1,6.3,12.6,16.3c3.5,10.1,7.6,19.1,7.6,19.1s21.4,7.8,21.8,8.2c0.3,0.4-6.7-18.5-21.9-33
			c-3.8-3.6-2.7-8.9-2.6-10.3c0,0,5.3-0.8,4.9-2.3c-0.4-1.5-7.3-9.7-17.6-8.2c-12.7,1.8-11.9,11.9-11.9,11.9L201.4,73.1z"/>
		<path class="st8" d="M179.4,305c0,0,2.4,9.7,2.7,10.6s20.2,0.2,20.4-0.7c0.2-0.9-2.2-11.6-2.8-12.1
			C199,302.3,179.8,302.9,179.4,305z"/>
		<g>
			<polygon class="st14" points="214.2,162.9 217.8,152.8 229.4,159.3 233.8,185.8 228.6,187.1 			"/>
			<g>
				<path class="st4" d="M231.9,185.2c-0.1,0-0.2-0.1-0.2-0.2l-5.1-23c0-0.1,0-0.2,0.1-0.2s0.2,0,0.2,0.1l5.1,23
					C232.1,185,232,185.1,231.9,185.2L231.9,185.2z"/>
			</g>
			<g>
				<path class="st4" d="M230,186.2c-0.1,0-0.2,0-0.2-0.1l-7.8-21.7c0-0.1,0-0.2,0.1-0.2s0.2,0,0.2,0.1l7.8,21.7
					C230.2,186,230.1,186.1,230,186.2L230,186.2z"/>
			</g>
			<polygon class="st8" points="217.5,168.9 230.7,164.7 231.6,168.1 218.9,171.8 			"/>
			<g>
				<path class="st4" d="M222.1,164.5L222.1,164.5l-4.8-2.5c-0.1,0-0.1-0.1-0.1-0.2l0.3-9c0-0.1,0.1-0.2,0.1-0.2
					c0.1,0,0.2,0,0.2,0.1l5.6,7.7c0,0.1,0,0.1,0,0.2L222.1,164.5C222.3,164.5,222.3,164.5,222.1,164.5
					C222.2,164.5,222.2,164.5,222.1,164.5z M217.7,161.7l4.4,2.4l1.2-3.5l-5.2-7.2L217.7,161.7z"/>
			</g>
			<g>
				<path class="st4" d="M226.8,162.1C226.8,162.1,226.7,162.1,226.8,162.1l-3.4-1.4c-0.1,0-0.1-0.2-0.1-0.3s0.2-0.1,0.3-0.1
					l3.2,1.3l2.6-2.6c0.1-0.1,0.2-0.1,0.3,0s0.1,0.2,0,0.3l-2.6,2.7C226.9,162.1,226.8,162.1,226.8,162.1z"/>
			</g>
			<g>
				<path class="st4" d="M214.2,163.1c-0.1,0-0.2-0.1-0.2-0.1c0-0.1,0-0.2,0.1-0.2l3.3-1.1c0.1,0,0.2,0,0.2,0.1s0,0.2-0.1,0.2
					L214.2,163.1L214.2,163.1z"/>
			</g>
		</g>
		<path class="st4" d="M210.3,89.1c0,0,2,5.8,6.5,7c4.4,1.2,9.1,1.7,12,8.6c3,6.9,5.4,13.3,10.2,15.7c4.8,2.4,11.7,0.5,15.7,5.3
			c4.1,4.7,5.5,8,7.6,9.5c2.1,1.4-2.1,3-5.1,1.8s-8-3.4-14.6-2.2s-22.8,2.7-35.3-6.3S185.5,95.2,192,89.1
			C198.6,83.1,210.3,89.1,210.3,89.1z"/>
		<path class="st12" d="M195.6,86.7c0,0,0.3-0.6,1.6-0.6s5.3,0.3,6,0.6c0.6,0.2-0.4,2-1.1,2.7c-0.7,0.7-2.1-1.6-3.1-1.1
			s-1.9,1.9-3.2,0.7S195.6,86.7,195.6,86.7z"/>
		<path class="st4" d="M196.5,86.5l6.1,0.4c0,0-1.5,1.4-3.4,1.2C197.3,87.9,196.5,86.5,196.5,86.5z"/>
		<path class="st4" d="M201.2,77.2c0,0-0.3,1,0.3,1.4s4.4,1.5,4.6,1c0.2-0.5,1-1.2-0.4-1.8C204.5,77.2,201.4,77,201.2,77.2z"/>
		<path class="st15" d="M331.1,213c0,0-1.4-3.2-4.6-7.2l-21.6,15.7c3.8,4.4,5.6,8.3,5.6,8.3L331.1,213z"/>
		<path class="st4" d="M194.9,78.8c-0.1,0-0.7-0.8-0.3-1.2c0.4-0.4,3.3-1.1,3.7-0.6s0.7,1.8,0,1.9C197.5,78.8,195.7,79,194.9,78.8z"
			/>
		<g>
			<path class="st11" d="M326.1,275.8c-8.3-6.4-10.7-13.6-13.6-20c-11.1-2.9-22.1,0.4-36.5,2.4c-17.6,2.5-39.3-2.2-62.1-15.8
				c-15.9-9.5-37.7-13.3-49.5-14.8c-2.4,9.9-4.1,16.9-4.1,16.9c29.4,0.2,39.7,31.2,70.8,37.9c10.4,2.3,32.1,6,47.5-1.5
				C299.3,270.9,327,276.5,326.1,275.8z"/>
		</g>
		<path class="st12" d="M62.2,77.4c0.3-0.3-3.3-3.7-2.7-5.4c0.6-1.7,2-1.7,2.8,0.6c0.9,2.3,4.7,5.9,6,6.8c1.3,1,2.6,2.9,3.6,3.7
			c1.9,1.5,6.3,1.8,7.3,2.3s-0.9,4.9-1.8,6.4s-0.7,1.8-1.8,1.5c-1-0.3-8.2-0.2-9.3-0.8c-1.1-0.6-7.1-2.4-7.7-3.4
			c-0.6-1-1.9-2.6-2.4-3.3c-0.5-0.7-0.6-2-1-3.1s-1.5-1.7-1.5-2.8C53.9,78.8,61.8,77.8,62.2,77.4z"/>
		<g>
			<g>
				<path class="st16" d="M51.4,36.5c0,0,4.9-4.2,5.6-11.1c0.7-6.9-4.4-11.2-6.7-12.5S34.7,8.6,32.4,7.7s-3.6-1.8-3.6,0.9
					s6.1,8.5,8.3,10.9C39.2,21.9,51.4,36.5,51.4,36.5z"/>
			</g>
			<g>
				<ellipse class="st14" cx="40.9" cy="19.7" rx="13.3" ry="13.3"/>
			</g>
			<g>
				<path class="st4" d="M30.6,19.9c-0.1,0-0.1,0-0.2,0c-0.5,0-1-0.4-1-0.9c-0.1-2.4,0.6-4.8,2.3-6.8c1.2-1.5,2.5-2.3,2.5-2.3
					c0.5-0.3,1.1-0.1,1.4,0.3c0.3,0.5,0.1,1.1-0.3,1.4c0,0-1.1,0.7-2.1,1.9c-1.3,1.6-1.9,3.4-1.8,5.3C31.4,19.4,31.1,19.8,30.6,19.9
					z"/>
			</g>
			<g>
				<path class="st16" d="M119.1,237.3c-2.8-4.5-52.6-144.9-53.6-149S54.6,49.3,54,44.6s-1-9.9-4.1-13.2c-3.1-3.2-10.2-6.8-10.4-9
					c-0.8-7.9,4.6-10.8,3.6-14.8s-2.5-7-3.7-5s-0.8,3.1-1,5c0,0-0.1,4.3-2,7.7s-5.1,7.4-4.9,12.1s5.2,11.2,7.7,13.1
					s9.4,12.3,11,16.4s7.2,22.4,9.1,27.8c1.9,5.4,9.4,31,11.4,36.6c1.9,5.6,40.4,129.5,42,134.7c1.5,5.1,1.3,9.3,2.7,10.5
					c1.4,1.2,6.9-7.8,9.3-14.5C127.2,245.3,122,241.8,119.1,237.3z M36.2,29.2c0,0-1.5-4-0.9-7.1c0.7-3.1,3.3-6.5,3.3-6.5
					s-2.6,4.5-1.8,8.8C37.3,26.6,38.1,32.9,36.2,29.2z"/>
			</g>
		</g>
		<path class="st12" d="M58,76.6c0,0-4.7-0.6-5,1.6s1.3,2.5,2.6,2c1.3-0.6,8.2-0.4,7.5-2.7C62.6,76.3,58,76.6,58,76.6z"/>
		<path class="st12" d="M62.3,78.5c0,0,2.2-0.1,2.5,0.7c0.3,0.8,0,1.1,0,1.1s1.3,0.7,1.3,1.2c0,0.6-0.1,0.7-0.1,0.7s1,0.5,1.2,1.1
			c0.1,0.7-5.9,5.3-6.9,5.2c-1-0.1-4.3-8-4-8.5C56.5,79.6,62.3,78.5,62.3,78.5z"/>
		<g>
			<path class="st4" d="M178.3,127.5c-0.1,0-0.1,0-0.2-0.1c0-0.1-3.3-5.3-6.7-10.4c-6.6-9.9-7.6-9.7-7.6-9.6c0,0,0,0,0,0.1
				c-0.3,1.6,6.7,11.8,9.5,15.6c0.1,0.1,0,0.2,0,0.2c-0.1,0.1-0.1,0.1-0.2,0.1l-17.9-7.4c-0.1,0-0.1-0.2-0.1-0.3
				c0-0.1,0.2-0.1,0.3-0.1l17.3,7.1c-0.8-1.1-2.7-3.8-4.5-6.5c-4.9-7.4-4.7-8.4-4.6-8.8c0-0.2,0.1-0.3,0.2-0.3
				c0.3-0.2,1.1-0.7,8.2,9.8c3.4,5.1,6.7,10.4,6.7,10.4c0.1,0.1,0,0.2-0.1,0.3C178.4,127.5,178.4,127.5,178.3,127.5z"/>
		</g>
		<g>
			<path class="st4" d="M97.2,143.7c-0.1,0-0.1,0-0.2-0.1s0-0.2,0.1-0.3c2.7-1.8,2.3-20.7-3.9-34.7c-5.1-11.5-10.6-19.7-12.4-22.4
				c-0.4-0.5-0.5-0.8-0.6-0.9c0-0.1,0-0.2,0.1-0.3c0.1,0,0.2,0,0.3,0.1c0,0.1,0.3,0.4,0.5,0.8c1.8,2.7,7.3,10.9,12.4,22.5
				c6,13.6,6.9,33,3.7,35.2C97.3,143.7,97.3,143.7,97.2,143.7z"/>
		</g>
		<g>
			<path class="st4" d="M154.2,111C154.1,111,154.1,111,154.2,111c-2.4-1.1-24.5-13.7-25.4-14.3c-0.1-0.1-0.1-0.2-0.1-0.3
				c0.1-0.1,0.2-0.1,0.3-0.1c0.2,0.1,23,13.2,25.3,14.3c0.1,0,0.1,0.2,0.1,0.3C154.3,111,154.2,111,154.2,111z"/>
		</g>
		<g>
			<path class="st4" d="M294.7,243.1L294.7,243.1c-0.2-0.1-14.3-6.3-27.3-10.2c-12.7-3.8-20.1-9.5-27.3-17
				c-6.4-6.6-12.5-13.5-13.5-15c-0.1-0.1,0-0.2,0.1-0.3s0.2,0,0.3,0.1c0.8,1.3,6.4,7.6,13.4,14.9c7.1,7.4,14.5,13.1,27.1,16.9
				c13.1,3.9,27.2,10.1,27.3,10.2c0.1,0,0.1,0.2,0.1,0.3C294.9,243.1,294.8,243.1,294.7,243.1z"/>
		</g>
		<g>
			<path class="st4" d="M210.6,227.8c-0.1,0-0.1,0-0.2-0.1c-1.9-4.7-6.1-8.1-10.8-12.1c-2.3-1.9-4.7-3.9-7.1-6.2
				c-7.8-7.4-11.8-19.2-11.8-19.3s0-0.2,0.1-0.2s0.2,0,0.2,0.1s4,11.8,11.7,19.2c2.5,2.3,4.8,4.3,7.1,6.2c4.8,4,9,7.5,10.9,12.3
				C210.8,227.7,210.7,227.8,210.6,227.8L210.6,227.8z"/>
		</g>
		<g>
			<path class="st4" d="M334.3,204c0,0-0.1,0-0.1-0.1c-2.4-2.3-4.7-8.4-6.2-16.5c-1.4-7.7-1.6-15.1-0.6-19.3c2.2-8.8,5.9-8.6,6-8.6
				s0.2,0.1,0.2,0.2c0,0.1-0.1,0.2-0.2,0.2c0,0-0.9,0-2,1c-1,0.9-2.5,3-3.6,7.4c-1,4.1-0.7,11.6,0.6,19.1c1.4,8,3.7,14,6.1,16.2
				c0.1,0.1,0.1,0.2,0,0.3C334.4,203.9,334.4,204,334.3,204z"/>
		</g>
	</g>
</g>
</svg>
